<svg width="274" height="103" viewBox="0 0 274 103" fill="none" xmlns="http://www.w3.org/2000/svg">
<g filter="url(#filter0_d_7_17)">
<path d="M90.4745 90.615L90.4244 88.2055L105.383 66.8518L89.5501 46.138L89.5 43.7286L97.6241 43.5597L110.242 59.9754L122.053 43.052L130.234 42.8819L130.284 45.2914L115.268 66.6463L131.157 87.2938L131.209 89.7684L123.028 89.9384L110.468 73.5867L98.5986 90.4461L90.4745 90.615Z" fill="url(#paint0_linear_7_17)"/>
<path d="M137.204 89.6438L136.229 42.7573L143.728 42.6015L144.125 61.6817L170.94 61.1243L170.543 42.0442L178.043 41.8883L179.017 88.7747L171.518 88.9306L171.121 69.8504L144.306 70.4077L144.703 89.4879L137.204 89.6438Z" fill="url(#paint1_linear_7_17)"/>
<path d="M185.584 88.6382L184.609 41.7518L222.275 40.969L222.455 49.6299L184.795 50.6733L185.006 60.832L216.764 60.1719L216.945 68.898L185.187 69.5581L185.404 79.9773L223.07 79.1944L223.25 87.8554L185.584 88.6382Z" fill="url(#paint2_linear_7_17)"/>
<path d="M261.577 87.0588L248.898 70.4489L258.726 70.2447L269.707 84.4793L269.757 86.8888L261.577 87.0588ZM228.967 87.7366L228.48 64.3259L227.993 40.9153L260.944 40.2304C262.384 40.2005 263.718 40.5854 264.947 41.3851C266.176 42.1847 267.165 43.2717 267.913 44.646C268.661 45.9768 269.052 47.4671 269.086 49.1168L269.349 61.7501C269.383 63.3998 269.055 64.9267 268.364 66.3309C267.673 67.7351 266.73 68.8622 265.536 69.7123C264.34 70.5189 263.022 70.9372 261.583 70.9671L236.133 71.5612L236.466 87.5807L228.967 87.7366ZM228.452 62.991L261.062 62.3132C261.252 62.3093 261.421 62.2406 261.57 62.1072C261.718 61.9738 261.79 61.7986 261.786 61.5815L261.537 49.5994C261.532 49.3824 261.453 49.2103 261.299 49.0832C261.144 48.9127 260.971 48.8294 260.782 48.8334L236.353 49.3411C236.164 49.345 228.32 49.3343 228.172 49.5111L228.452 62.991C228.263 62.9949 228.606 63.118 228.452 62.991Z" fill="url(#paint3_linear_7_17)"/>
</g>
<path d="M86.0413 81.2896L82.0756 72.4772L78.4037 75.48L76.8762 76.4809L68 72.4772L63.8518 69.975L44 58L63.1284 76.4809L32 95.9986L42.2523 91.995L53.4541 87.4909L76.8762 78.4827H80.9495L86.0413 81.2896Z" fill="url(#paint4_linear_7_17)"/>
<path d="M19.5 100L22.5 95.9986L57.0184 19.9295L80.9495 69.975L82.0756 72.4772L86.0413 81.2896L91.5 97.5L97.5 100H104.5L111 102.5L107.5 93.9968L65 0H48.5L0 100H19.5Z" fill="url(#paint5_linear_7_17)"/>
<path d="M84.5 84.7134L80.6058 75.9091L77 78.9091L73 77.4091L62 70.7134L61.5 70.4091L44.5 59.9091L62 79.9091L30 99.4091L41.5 95.4091L52.5 90.9091L75.5 81.9091H79.5L84.5 84.7134Z" fill="url(#paint6_linear_7_17)"/>
<path d="M18.5 99.4091L21 97.4091L56 23.4091L79.5 73.4091L80.6058 75.9091L84.5 84.7134L91 99.4091H92.5H101L109.5 100.909L64.9056 1H48L0.5 99.4091H18.5Z" fill="url(#paint7_linear_7_17)"/>
<defs>
<filter id="filter0_d_7_17" x="85.5" y="40.2288" width="188.257" height="58.3862" filterUnits="userSpaceOnUse" color-interpolation-filters="sRGB">
<feFlood flood-opacity="0" result="BackgroundImageFix"/>
<feColorMatrix in="SourceAlpha" type="matrix" values="0 0 0 0 0 0 0 0 0 0 0 0 0 0 0 0 0 0 127 0" result="hardAlpha"/>
<feOffset dy="4"/>
<feGaussianBlur stdDeviation="2"/>
<feComposite in2="hardAlpha" operator="out"/>
<feColorMatrix type="matrix" values="0 0 0 0 0 0 0 0 0 0 0 0 0 0 0 0 0 0 0.25 0"/>
<feBlend mode="normal" in2="BackgroundImageFix" result="effect1_dropShadow_7_17"/>
<feBlend mode="normal" in="SourceGraphic" in2="effect1_dropShadow_7_17" result="shape"/>
</filter>
<linearGradient id="paint0_linear_7_17" x1="178.838" y1="41.8718" x2="177.071" y2="88.6123" gradientUnits="userSpaceOnUse">
<stop stop-color="#CDCDCD"/>
<stop offset="1" stop-color="#121212"/>
</linearGradient>
<linearGradient id="paint1_linear_7_17" x1="178.838" y1="41.8718" x2="177.071" y2="88.6123" gradientUnits="userSpaceOnUse">
<stop stop-color="#CDCDCD"/>
<stop offset="1" stop-color="#121212"/>
</linearGradient>
<linearGradient id="paint2_linear_7_17" x1="178.838" y1="41.8718" x2="177.071" y2="88.6123" gradientUnits="userSpaceOnUse">
<stop stop-color="#CDCDCD"/>
<stop offset="1" stop-color="#121212"/>
</linearGradient>
<linearGradient id="paint3_linear_7_17" x1="178.838" y1="41.8718" x2="177.071" y2="88.6123" gradientUnits="userSpaceOnUse">
<stop stop-color="#CDCDCD"/>
<stop offset="1" stop-color="#121212"/>
</linearGradient>
<linearGradient id="paint4_linear_7_17" x1="56" y1="-2.5" x2="56" y2="97.5" gradientUnits="userSpaceOnUse">
<stop offset="0.149038" stop-color="#FC0000"/>
<stop offset="0.725962" stop-color="white"/>
<stop offset="0.802985" stop-color="#FF0202"/>
<stop offset="0.855769" stop-color="#FF0000"/>
</linearGradient>
<linearGradient id="paint5_linear_7_17" x1="55.5" y1="0" x2="55.5" y2="102.5" gradientUnits="userSpaceOnUse">
<stop stop-color="white"/>
<stop offset="0.3125" stop-color="#FF0000"/>
<stop offset="0.485577" stop-color="#FF0000"/>
<stop offset="0.841446" stop-color="#FF0000"/>
</linearGradient>
<linearGradient id="paint6_linear_7_17" x1="55" y1="1" x2="55" y2="100.909" gradientUnits="userSpaceOnUse">
<stop offset="0.738016" stop-color="#FF0000"/>
<stop offset="0.835772" stop-color="#3E0000"/>
</linearGradient>
<linearGradient id="paint7_linear_7_17" x1="55" y1="1" x2="55" y2="100.909" gradientUnits="userSpaceOnUse">
<stop offset="0.322115" stop-color="#FF0000"/>
<stop offset="0.8771" stop-color="#3E0000"/>
</linearGradient>
</defs>
</svg>
